<?xml version="1.0" standalone="no"?><!-- Generator: Gravit.io --><svg xmlns="http://www.w3.org/2000/svg" xmlns:xlink="http://www.w3.org/1999/xlink" style="isolation:isolate" width="800" height="200"><path d=" M 113.83123529554439 85.95993466592613 L 130.8312352955444 61.95993466592611 L 177.99999999999997 127.75609756097573" fill="none" stroke-width="8" stroke="rgb(46,46,46)" stroke-linejoin="miter" stroke-linecap="square"/><path d=" M 22.999999999999996 164.7560975609757 C 32.976165783691 142.03368152745975 40.67586011769967 122.51184224019211 48 106.63222667204778" fill="none" stroke-width="8" stroke="rgb(46,46,46)" stroke-linejoin="miter" stroke-linecap="square"/><path d=" M 114 91 L 131 67 L 174 134" fill="none" stroke-width="6" stroke="rgb(74,134,232)" stroke-linejoin="miter" stroke-linecap="square"/><path d=" M 48 106.63222667204775 Q 75.78688747746872 39.1321789231495 80.73171592327216 36.75609756097569 L 149 164.75609756097572" fill="none" stroke-width="8" stroke="rgb(46,46,46)" stroke-linejoin="miter" stroke-linecap="square"/><path d=" M 231.68 29.4 L 231.68 86.2 L 220.72 86.2 L 220.72 61.96 L 194.96 61.96 L 194.96 86.2 L 183.92 86.2 L 183.92 29.4 L 194.96 29.4 L 194.96 52.36 L 220.72 52.36 L 220.72 29.4 L 231.68 29.4 Z  M 239.04 101.88 Q 236 101.88 233.28 100.96000000000001 Q 230.56 100.04 228.4 98.12 L 233.04 90.84 Q 233.92000000000002 91.72 235.2 92.16 Q 236.48000000000002 92.60000000000001 237.76 92.60000000000001 Q 239.84 92.60000000000001 241.36 91.12 Q 242.88 89.64 242.88 87.32000000000001 L 242.88 44.28 L 253.6 44.28 L 253.6 86.52 Q 253.6 89.88000000000001 252.48000000000002 92.72 Q 251.36 95.56 249.4 97.60000000000001 Q 247.44 99.64 244.76 100.76 Q 242.07999999999998 101.88 239.04 101.88 Z  M 242.88 38.440000000000005 L 242.88 27.800000000000004 L 253.6 27.800000000000004 L 253.6 38.440000000000005 L 242.88 38.440000000000005 Z  M 262.48 86.52 L 267.12 81.08 Q 264 78.04 262.36 73.96000000000001 Q 260.72 69.88 260.72 65.32000000000001 Q 260.72 60.92 262.24 57 Q 263.76 53.080000000000005 266.6 50.080000000000005 Q 269.44 47.080000000000005 273.52 45.32 Q 277.6 43.56 282.72 43.56 Q 286.08000000000004 43.56 288.96000000000004 44.36 Q 291.84000000000003 45.160000000000004 294.24 46.52 L 296.4 43.96 L 302.48 43.96 L 298 49.32 Q 301.2 52.36 302.92 56.480000000000004 Q 304.64 60.6 304.64 65.32000000000001 Q 304.64 69.64 303.12 73.56 Q 301.6 77.48 298.8 80.48 Q 296 83.48 291.92 85.24000000000001 Q 287.84000000000003 87 282.72 87 Q 279.2 87 276.24 86.2 Q 273.28 85.4 270.8 83.88000000000001 L 268.56 86.52 L 262.48 86.52 Z  M 282.72 77.88 Q 285.04 77.88 287.04 76.96000000000001 Q 289.04 76.04 290.52 74.36 Q 292 72.68 292.84000000000003 70.36 Q 293.68 68.04 293.68 65.24000000000001 Q 293.68 62.92 293.08000000000004 60.88 Q 292.48 58.84 291.36 57.24 L 276.88 76.12 Q 279.52 77.88 282.72 77.88 Z  M 271.76 65.32000000000001 Q 271.76 69.88 273.92 73.16 L 288.24 54.28 Q 285.76 52.68 282.72 52.68 Q 280.4 52.68 278.4 53.64 Q 276.4 54.6 274.92 56.28 Q 273.44 57.96 272.6 60.28 Q 271.76 62.6 271.76 65.32000000000001 Z  M 336.8 53.56 Q 331.92 53.64 328.08000000000004 55.44 Q 324.24 57.24 322.56 60.84 L 322.56 86.2 L 311.84000000000003 86.2 L 311.84000000000003 44.28 L 321.68 44.28 L 321.68 53.24 Q 322.8 51.080000000000005 324.32 49.36 Q 325.84000000000003 47.64 327.6 46.36 Q 329.36 45.080000000000005 331.15999999999997 44.4 Q 332.96000000000004 43.72 334.64 43.72 Q 335.52 43.72 335.96000000000004 43.72 Q 336.4 43.72 336.8 43.800000000000004 L 336.8 53.56 Z  M 355.6 87 Q 349.12 87 345.76 82.84 Q 342.4 78.68 342.4 70.52000000000001 L 342.4 44.28 L 353.12 44.28 L 353.12 68.2 Q 353.12 77.88 360.08000000000004 77.88 Q 363.20000000000005 77.88 366.12 76 Q 369.04 74.12 370.88 70.28 L 370.88 44.28 L 381.6 44.28 L 381.6 73.88 Q 381.6 75.56 382.20000000000005 76.28 Q 382.8 77 384.16 77.08 L 384.16 86.2 Q 382.56 86.52 381.48 86.60000000000001 Q 380.40000000000003 86.68 379.52 86.68 Q 376.64 86.68 374.84000000000003 85.36 Q 373.04 84.04 372.72 81.72 L 372.48 78.36 Q 369.68 82.68 365.28000000000003 84.84 Q 360.88 87 355.6 87 Z  M 431.20000000000005 86.2 L 420.48 86.2 L 420.48 62.68000000000001 Q 420.48 57.64 418.72 55.32000000000001 Q 416.96000000000004 53 413.84000000000003 53 Q 412.24 53 410.56 53.64 Q 408.88 54.28 407.4 55.44 Q 405.92 56.6 404.72 58.2 Q 403.52 59.8 402.96000000000004 61.72 L 402.96000000000004 86.2 L 392.24 86.2 L 392.24 44.28 L 401.92 44.28 L 401.92 52.04 Q 404.24 48.04 408.64 45.800000000000004 Q 413.04 43.56 418.56 43.56 Q 422.48 43.56 424.96000000000004 45 Q 427.44 46.440000000000005 428.8 48.760000000000005 Q 430.16 51.080000000000005 430.68 54.04 Q 431.20000000000005 57 431.20000000000005 60.040000000000006 L 431.20000000000005 86.2 Z  M 457.92 87 Q 453.6 87 449.92 85.32000000000001 Q 446.24 83.64 443.6 80.68 Q 440.96 77.72 439.48 73.76 Q 438 69.80000000000001 438 65.24000000000001 Q 438 60.68000000000001 439.40000000000003 56.760000000000005 Q 440.8 52.84 443.28000000000003 49.88 Q 445.76 46.92 449.2 45.24 Q 452.64 43.56 456.72 43.56 Q 461.36 43.56 465.08 45.800000000000004 Q 468.8 48.04 470.88 51.64 L 470.88 27.800000000000004 L 481.6 27.800000000000004 L 481.6 73.88 Q 481.6 75.56 482.16 76.28 Q 482.72 77 484.08 77.08 L 484.08 86.2 Q 481.28000000000003 86.76 479.52 86.76 Q 476.64 86.76 474.8 85.32000000000001 Q 472.96000000000004 83.88000000000001 472.72 81.56 L 472.48 78.92 Q 470.16 82.92 466.2 84.96000000000001 Q 462.24 87 457.92 87 Z  M 460.72 77.88 Q 462.24 77.88 463.84000000000003 77.36 Q 465.44 76.84 466.8 75.88 Q 468.16 74.92 469.24 73.64 Q 470.32 72.36 470.88 70.84 L 470.88 60.84 Q 470.24 59.08 469.08 57.6 Q 467.92 56.120000000000005 466.44 55.040000000000006 Q 464.96000000000004 53.96 463.32 53.32 Q 461.68 52.68 460.08 52.68 Q 457.68 52.68 455.64 53.72 Q 453.6 54.760000000000005 452.16 56.56 Q 450.72 58.36 449.92 60.68000000000001 Q 449.12 63 449.12 65.48 Q 449.12 68.12 450 70.36 Q 450.88 72.6 452.4 74.28 Q 453.92 75.96000000000001 456.04 76.92 Q 458.16 77.88 460.72 77.88 Z  M 494.72 86.2 L 494.72 54.68000000000001 L 489.20000000000005 54.68000000000001 L 489.20000000000005 46.52 L 494.72 46.52 L 494.72 43.96 Q 494.72 36.120000000000005 498.48 31.560000000000002 Q 502.24 27 508.72 27 Q 513.84 27 519.04 29.480000000000004 L 516.8800000000001 37.56 Q 515.6800000000001 36.92 514.04 36.480000000000004 Q 512.4000000000001 36.04 511.04 36.04 Q 505.44000000000005 36.04 505.44000000000005 43.56 L 505.44000000000005 46.52 L 515.6800000000001 46.52 L 515.6800000000001 54.68000000000001 L 505.44000000000005 54.68000000000001 L 505.44000000000005 86.2 L 494.72 86.2 Z  M 518.32 101.88 Q 515.28 101.88 512.5600000000001 100.96000000000001 Q 509.84000000000003 100.04 507.68000000000006 98.12 L 512.32 90.84 Q 513.2 91.72 514.48 92.16 Q 515.76 92.60000000000001 517.0400000000001 92.60000000000001 Q 519.1200000000001 92.60000000000001 520.6400000000001 91.12 Q 522.1600000000001 89.64 522.1600000000001 87.32000000000001 L 522.1600000000001 44.28 L 532.8800000000001 44.28 L 532.8800000000001 86.52 Q 532.8800000000001 89.88000000000001 531.76 92.72 Q 530.6400000000001 95.56 528.6800000000001 97.60000000000001 Q 526.72 99.64 524.0400000000001 100.76 Q 521.3600000000001 101.88 518.32 101.88 Z  M 522.1600000000001 38.440000000000005 L 522.1600000000001 27.800000000000004 L 532.8800000000001 27.800000000000004 L 532.8800000000001 38.440000000000005 L 522.1600000000001 38.440000000000005 Z  M 562 87 Q 556.8800000000001 87 552.8000000000001 85.24000000000001 Q 548.72 83.48 545.8800000000001 80.48 Q 543.04 77.48 541.52 73.56 Q 540 69.64 540 65.32000000000001 Q 540 60.92 541.52 57 Q 543.04 53.080000000000005 545.8800000000001 50.080000000000005 Q 548.72 47.080000000000005 552.8000000000001 45.32 Q 556.8800000000001 43.56 562 43.56 Q 567.1200000000001 43.56 571.1600000000001 45.32 Q 575.2 47.080000000000005 578.0400000000001 50.080000000000005 Q 580.8800000000001 53.080000000000005 582.4000000000001 57 Q 583.9200000000001 60.92 583.9200000000001 65.32000000000001 Q 583.9200000000001 69.64 582.4000000000001 73.56 Q 580.8800000000001 77.48 578.08 80.48 Q 575.28 83.48 571.2 85.24000000000001 Q 567.1200000000001 87 562 87 Z  M 551.0400000000001 65.32000000000001 Q 551.0400000000001 68.12 551.8800000000001 70.4 Q 552.72 72.68 554.2 74.36 Q 555.6800000000001 76.04 557.6800000000001 76.96000000000001 Q 559.6800000000001 77.88 562 77.88 Q 564.32 77.88 566.32 76.96000000000001 Q 568.32 76.04 569.8000000000001 74.36 Q 571.28 72.68 572.1200000000001 70.36 Q 572.96 68.04 572.96 65.24000000000001 Q 572.96 62.52 572.1200000000001 60.2 Q 571.28 57.88 569.8000000000001 56.2 Q 568.32 54.52 566.32 53.6 Q 564.32 52.68 562 52.68 Q 559.6800000000001 52.68 557.6800000000001 53.64 Q 555.6800000000001 54.6 554.2 56.28 Q 552.72 57.96 551.8800000000001 60.28 Q 551.0400000000001 62.6 551.0400000000001 65.32000000000001 Z  M 616.08 53.56 Q 611.2 53.64 607.3600000000001 55.44 Q 603.5200000000001 57.24 601.8400000000001 60.84 L 601.8400000000001 86.2 L 591.1200000000001 86.2 L 591.1200000000001 44.28 L 600.96 44.28 L 600.96 53.24 Q 602.08 51.080000000000005 603.6000000000001 49.36 Q 605.1200000000001 47.64 606.8800000000001 46.36 Q 608.6400000000001 45.080000000000005 610.44 44.4 Q 612.24 43.72 613.9200000000001 43.72 Q 614.8000000000001 43.72 615.24 43.72 Q 615.6800000000001 43.72 616.08 43.800000000000004 L 616.08 53.56 Z  M 639.44 87 Q 635.1200000000001 87 631.44 85.32000000000001 Q 627.76 83.64 625.1200000000001 80.68 Q 622.48 77.72 621 73.76 Q 619.52 69.80000000000001 619.52 65.24000000000001 Q 619.52 60.68000000000001 620.9200000000001 56.760000000000005 Q 622.32 52.84 624.8000000000001 49.88 Q 627.28 46.92 630.72 45.24 Q 634.1600000000001 43.56 638.24 43.56 Q 642.8800000000001 43.56 646.6 45.800000000000004 Q 650.32 48.04 652.4000000000001 51.64 L 652.4000000000001 27.800000000000004 L 663.1200000000001 27.800000000000004 L 663.1200000000001 73.88 Q 663.1200000000001 75.56 663.6800000000001 76.28 Q 664.24 77 665.6 77.08 L 665.6 86.2 Q 662.8000000000001 86.76 661.0400000000001 86.76 Q 658.1600000000001 86.76 656.32 85.32000000000001 Q 654.48 83.88000000000001 654.24 81.56 L 654 78.92 Q 651.6800000000001 82.92 647.72 84.96000000000001 Q 643.76 87 639.44 87 Z  M 642.24 77.88 Q 643.76 77.88 645.3600000000001 77.36 Q 646.96 76.84 648.32 75.88 Q 649.6800000000001 74.92 650.76 73.64 Q 651.84 72.36 652.4000000000001 70.84 L 652.4000000000001 60.84 Q 651.76 59.08 650.6 57.6 Q 649.44 56.120000000000005 647.96 55.040000000000006 Q 646.48 53.96 644.84 53.32 Q 643.2 52.68 641.6 52.68 Q 639.2 52.68 637.1600000000001 53.72 Q 635.1200000000001 54.760000000000005 633.6800000000001 56.56 Q 632.24 58.36 631.44 60.68000000000001 Q 630.6400000000001 63 630.6400000000001 65.48 Q 630.6400000000001 68.12 631.52 70.36 Q 632.4000000000001 72.6 633.9200000000001 74.28 Q 635.44 75.96000000000001 637.5600000000001 76.92 Q 639.6800000000001 77.88 642.24 77.88 Z " fill-rule="evenodd" fill="rgb(0,0,0)" stroke-width="1" stroke="rgba(0,0,0,0)" stroke-linejoin="miter" stroke-linecap="square"/><path d=" M 271.88 168.2 L 271.88 119.08 L 249.48000000000002 157.4 L 246.92000000000002 157.4 L 224.52 119.08 L 224.52 168.2 L 220.44 168.2 L 220.44 111.4 L 224.52 111.4 L 248.2 152.04000000000002 L 271.88 111.4 L 275.96 111.4 L 275.96 168.2 L 271.88 168.2 Z  M 307.08000000000004 169 Q 302.68 169 298.96000000000004 167.28 Q 295.24 165.56 292.52 162.60000000000002 Q 289.8 159.64 288.28 155.72 Q 286.76 151.8 286.76 147.48000000000002 Q 286.76 143.07999999999998 288.32 139.16 Q 289.88 135.24 292.6 132.28 Q 295.32 129.32 299.04 127.6 Q 302.76 125.88 307.08000000000004 125.88 Q 311.4 125.88 315.08000000000004 127.6 Q 318.76 129.32 321.52 132.28 Q 324.28 135.24 325.84000000000003 139.16 Q 327.4 143.07999999999998 327.4 147.48000000000002 Q 327.4 151.8 325.84000000000003 155.72 Q 324.28 159.64 321.56 162.60000000000002 Q 318.84000000000003 165.56 315.12 167.28 Q 311.4 169 307.08000000000004 169 Z  M 290.76 147.64 Q 290.76 151.32 292.04 154.56 Q 293.32 157.8 295.52 160.2 Q 297.72 162.60000000000002 300.68 164 Q 303.64 165.4 307 165.4 Q 310.36 165.4 313.32 164 Q 316.28 162.60000000000002 318.52 160.12 Q 320.76 157.64 322.04 154.4 Q 323.32 151.16 323.32 147.4 Q 323.32 143.72 322.04 140.48000000000002 Q 320.76 137.24 318.52 134.8 Q 316.28 132.36 313.36 130.92000000000002 Q 310.44 129.48000000000002 307.08000000000004 129.48000000000002 Q 303.72 129.48000000000002 300.76 130.92000000000002 Q 297.8 132.36 295.6 134.84 Q 293.4 137.32 292.08000000000004 140.64 Q 290.76 143.96 290.76 147.64 Z  M 349.88 169 Q 336.6 169 336.6 150.6 L 336.6 126.6 L 340.6 126.6 L 340.6 150.04000000000002 Q 340.6 165.4 351.08000000000004 165.4 Q 353.72 165.4 356.20000000000005 164.48000000000002 Q 358.68 163.56 360.84000000000003 161.92000000000002 Q 363 160.28 364.64 157.96 Q 366.28 155.64 367.24 152.84 L 367.24 126.6 L 371.24 126.6 L 371.24 162.60000000000002 Q 371.24 164.60000000000002 372.92 164.60000000000002 L 372.92 168.2 Q 372.52 168.28 372.2 168.28 Q 371.88 168.28 371.72 168.28 Q 370.12 168.28 368.88 167.28 Q 367.64 166.28 367.64 164.60000000000002 L 367.64 158.36 Q 364.92 163.4 360.15999999999997 166.2 Q 355.4 169 349.88 169 Z  M 417.96000000000004 168.2 L 413.96000000000004 168.2 L 413.96000000000004 145 Q 413.96000000000004 136.92000000000002 411.68 133.24 Q 409.4 129.56 404.44 129.56 Q 401.8 129.56 399.2 130.52 Q 396.6 131.48000000000002 394.36 133.24 Q 392.12 135 390.44 137.36 Q 388.76 139.72 387.96000000000004 142.44 L 387.96000000000004 168.2 L 383.96000000000004 168.2 L 383.96000000000004 126.6 L 387.72 126.6 L 387.72 136.52 Q 389 134.12 390.88 132.16 Q 392.76 130.2 395.12 128.8 Q 397.48 127.4 400.12 126.64 Q 402.76 125.88 405.56 125.88 Q 412.36 125.88 415.15999999999997 130.64 Q 417.96000000000004 135.4 417.96000000000004 144.28 L 417.96000000000004 168.2 Z  M 448.6 166.2 Q 448.28 166.36 447.52 166.8 Q 446.76 167.24 445.6 167.64 Q 444.44 168.04000000000002 443 168.36 Q 441.56 168.68 439.88 168.68 Q 438.20000000000005 168.68 436.72 168.2 Q 435.24 167.72 434.12 166.76 Q 433 165.8 432.36 164.44 Q 431.72 163.07999999999998 431.72 161.24 L 431.72 129.88 L 425.88 129.88 L 425.88 126.6 L 431.72 126.6 L 431.72 112.36 L 435.72 112.36 L 435.72 126.6 L 445.4 126.6 L 445.4 129.88 L 435.72 129.88 L 435.72 160.28 Q 435.72 162.60000000000002 437.32000000000005 163.76 Q 438.92 164.92000000000002 440.92 164.92000000000002 Q 443.4 164.92000000000002 445.20000000000005 164.07999999999998 Q 447 163.24 447.4 163 L 448.6 166.2 Z  M 465.88 169 Q 463 169 460.52 168 Q 458.04 167 456.15999999999997 165.28 Q 454.28 163.56 453.24 161.2 Q 452.20000000000005 158.84 452.20000000000005 156.12 Q 452.20000000000005 153.4 453.48 151.16 Q 454.76 148.92000000000002 457.04 147.28 Q 459.32 145.64 462.52 144.72 Q 465.72 143.8 469.56 143.8 Q 472.92 143.8 476.32 144.4 Q 479.72 145 482.44 146.04000000000002 L 482.44 141.96 Q 482.44 136.04 479.08 132.56 Q 475.72 129.08 469.96 129.08 Q 466.92 129.08 463.52 130.36 Q 460.12 131.64 456.6 134.04 L 455.08000000000004 131.32 Q 463.08000000000004 125.88 470.28000000000003 125.88 Q 477.8 125.88 482.12 130.24 Q 486.44 134.6 486.44 142.28 L 486.44 162.60000000000002 Q 486.44 164.60000000000002 488.2 164.60000000000002 L 488.2 168.2 Q 487.8 168.28 487.36 168.32 Q 486.92 168.36 486.6 168.36 Q 485 168.36 484.04 167.28 Q 483.08 166.2 482.92 164.68 L 482.92 161.24 Q 480.04 165 475.56 167 Q 471.08 169 465.88 169 Z  M 466.68 165.8 Q 471.32 165.8 475.2 164.04000000000002 Q 479.08 162.28 481.16 159.4 Q 482.44 157.72 482.44 156.2 L 482.44 148.84 Q 479.56 147.72 476.44 147.16 Q 473.32 146.6 469.96 146.6 Q 466.84000000000003 146.6 464.28 147.28 Q 461.72 147.96 459.88 149.16 Q 458.04 150.36 457.04 152.07999999999998 Q 456.04 153.8 456.04 155.88 Q 456.04 157.96 456.84000000000003 159.8 Q 457.64 161.64 459.08000000000004 162.96 Q 460.52 164.28 462.48 165.04000000000002 Q 464.44 165.8 466.68 165.8 Z  M 498.6 168.2 L 498.6 126.6 L 502.6 126.6 L 502.6 168.2 L 498.6 168.2 Z  M 498.6 117.16 L 498.6 109.80000000000001 L 502.6 109.80000000000001 L 502.6 117.16 L 498.6 117.16 Z  M 549.1600000000001 168.2 L 545.1600000000001 168.2 L 545.1600000000001 145 Q 545.1600000000001 136.92000000000002 542.88 133.24 Q 540.6 129.56 535.64 129.56 Q 533 129.56 530.4000000000001 130.52 Q 527.8 131.48000000000002 525.56 133.24 Q 523.3199999999999 135 521.6400000000001 137.36 Q 519.96 139.72 519.1600000000001 142.44 L 519.1600000000001 168.2 L 515.1600000000001 168.2 L 515.1600000000001 126.6 L 518.9200000000001 126.6 L 518.9200000000001 136.52 Q 520.2 134.12 522.08 132.16 Q 523.96 130.2 526.3199999999999 128.8 Q 528.6800000000001 127.4 531.3199999999999 126.64 Q 533.96 125.88 536.76 125.88 Q 543.56 125.88 546.36 130.64 Q 549.1600000000001 135.4 549.1600000000001 144.28 L 549.1600000000001 168.2 Z  M 578.04 168.84 Q 573.72 168.84 570.12 167.04000000000002 Q 566.52 165.24 563.9200000000001 162.24 Q 561.3199999999999 159.24 559.8399999999999 155.4 Q 558.36 151.56 558.36 147.48000000000002 Q 558.36 143.24 559.76 139.32 Q 561.1600000000001 135.4 563.72 132.4 Q 566.28 129.4 569.8399999999999 127.64 Q 573.4 125.88 577.72 125.88 Q 583.1600000000001 125.88 587.2 128.72 Q 591.24 131.56 594.04 135.64 L 594.04 126.6 L 597.72 126.6 L 597.72 169 Q 597.72 173.24 596.12 176.44 Q 594.52 179.64 591.84 181.76 Q 589.1600000000001 183.88 585.6 184.96 Q 582.04 186.04000000000002 578.12 186.04000000000002 Q 574.52 186.04000000000002 571.64 185.36 Q 568.76 184.68 566.56 183.44 Q 564.36 182.2 562.64 180.4 Q 560.9200000000001 178.60000000000002 559.64 176.44 L 562.36 174.60000000000002 Q 564.8399999999999 178.84 569.0799999999999 180.8 Q 573.3199999999999 182.76 578.12 182.76 Q 581.3199999999999 182.76 584.1600000000001 181.88 Q 587 181 589.12 179.28 Q 591.24 177.56 592.48 175 Q 593.72 172.44 593.72 169 L 593.72 159.88 Q 591.1600000000001 163.96 586.9200000000001 166.4 Q 582.6800000000001 168.84 578.04 168.84 Z  M 579 165.4 Q 581.64 165.4 584.1600000000001 164.4 Q 586.6800000000001 163.4 588.72 161.8 Q 590.76 160.2 592.0799999999999 158.2 Q 593.4 156.2 593.72 154.2 L 593.72 140.52 Q 592.76 138.12 591.1600000000001 136.08 Q 589.56 134.04 587.52 132.6 Q 585.48 131.16 583.12 130.32 Q 580.76 129.48000000000002 578.36 129.48000000000002 Q 574.6 129.48000000000002 571.64 131.08 Q 568.6800000000001 132.68 566.64 135.24 Q 564.6 137.8 563.52 141.04000000000002 Q 562.44 144.28 562.44 147.56 Q 562.44 151.16 563.72 154.36 Q 565 157.56 567.24 160.04000000000002 Q 569.48 162.52 572.52 163.96 Q 575.56 165.4 579 165.4 Z  M 623.0799999999999 169 Q 609.8 169 609.8 150.6 L 609.8 126.6 L 613.8 126.6 L 613.8 150.04000000000002 Q 613.8 165.4 624.28 165.4 Q 626.92 165.4 629.4 164.48000000000002 Q 631.88 163.56 634.04 161.92000000000002 Q 636.2 160.28 637.8399999999999 157.96 Q 639.48 155.64 640.44 152.84 L 640.44 126.6 L 644.44 126.6 L 644.44 162.60000000000002 Q 644.44 164.60000000000002 646.12 164.60000000000002 L 646.12 168.2 Q 645.72 168.28 645.4 168.28 Q 645.0799999999999 168.28 644.92 168.28 Q 643.3199999999999 168.28 642.0799999999999 167.28 Q 640.8399999999999 166.28 640.8399999999999 164.60000000000002 L 640.8399999999999 158.36 Q 638.12 163.4 633.3599999999999 166.2 Q 628.5999999999999 169 623.0799999999999 169 Z  M 657.16 168.2 L 657.16 126.6 L 661.16 126.6 L 661.16 168.2 L 657.16 168.2 Z  M 657.16 117.16 L 657.16 109.80000000000001 L 661.16 109.80000000000001 L 661.16 117.16 L 657.16 117.16 Z  M 690.8399999999999 169 Q 686.52 169 682.8399999999999 167.2 Q 679.16 165.4 676.48 162.4 Q 673.8 159.4 672.3199999999999 155.52 Q 670.8399999999999 151.64 670.8399999999999 147.48000000000002 Q 670.8399999999999 143.16 672.28 139.24 Q 673.72 135.32 676.28 132.36 Q 678.8399999999999 129.4 682.3199999999999 127.64 Q 685.8 125.88 689.96 125.88 Q 692.68 125.88 695.0799999999999 126.68 Q 697.48 127.48 699.56 128.8 Q 701.64 130.12 703.3199999999999 131.88 Q 705 133.64 706.1999999999999 135.64 L 706.1999999999999 109.80000000000001 L 710.1999999999999 109.80000000000001 L 710.1999999999999 162.60000000000002 Q 710.1999999999999 164.60000000000002 711.8799999999999 164.60000000000002 L 711.8799999999999 168.2 Q 711.4 168.28 711.0799999999999 168.32 Q 710.76 168.36 710.4399999999999 168.36 Q 708.8399999999999 168.36 707.72 167.12 Q 706.5999999999999 165.88 706.5999999999999 164.51999999999998 L 706.5999999999999 159.88 Q 704.04 164.04000000000002 699.76 166.51999999999998 Q 695.48 169 690.8399999999999 169 Z  M 691.56 165.4 Q 693.72 165.4 696.1999999999999 164.51999999999998 Q 698.68 163.64 700.8 162.07999999999998 Q 702.92 160.52 704.4399999999999 158.52 Q 705.96 156.52 706.1999999999999 154.2 L 706.1999999999999 140.52 Q 705.3199999999999 138.28 703.68 136.24 Q 702.04 134.2 699.96 132.72 Q 697.8799999999999 131.24 695.48 130.36 Q 693.0799999999999 129.48000000000002 690.8399999999999 129.48000000000002 Q 687.24 129.48000000000002 684.28 131.04 Q 681.3199999999999 132.6 679.24 135.12 Q 677.16 137.64 676.04 140.88 Q 674.92 144.12 674.92 147.56 Q 674.92 151.16 676.2 154.36 Q 677.48 157.56 679.76 160.04000000000002 Q 682.04 162.52 685.04 163.96 Q 688.04 165.4 691.56 165.4 Z  M 740.5999999999999 169 Q 736.1999999999999 169 732.4399999999999 167.28 Q 728.68 165.56 725.92 162.56 Q 723.16 159.56 721.5999999999999 155.64 Q 720.04 151.72 720.04 147.24 Q 720.04 142.84 721.5999999999999 138.96 Q 723.16 135.08 725.88 132.16 Q 728.5999999999999 129.24 732.3199999999999 127.56 Q 736.04 125.88 740.3599999999999 125.88 Q 744.76 125.88 748.52 127.6 Q 752.28 129.32 755 132.24 Q 757.7199999999999 135.16 759.24 139.04000000000002 Q 760.76 142.92000000000002 760.76 147.24 Q 760.76 147.64 760.76 148.24 Q 760.76 148.84 760.68 149 L 724.1999999999999 149 Q 724.4399999999999 152.6 725.88 155.68 Q 727.3199999999999 158.76 729.52 161 Q 731.7199999999999 163.24 734.5999999999999 164.51999999999998 Q 737.4799999999999 165.8 740.76 165.8 Q 742.92 165.8 745 165.2 Q 747.0799999999999 164.60000000000002 748.88 163.56 Q 750.68 162.52 752.0799999999999 161.04000000000002 Q 753.4799999999999 159.56 754.28 157.8 L 757.8 158.76 Q 756.92 161 755.1999999999999 162.88 Q 753.4799999999999 164.76 751.1999999999999 166.12 Q 748.92 167.48000000000002 746.1999999999999 168.24 Q 743.4799999999999 169 740.5999999999999 169 Z  M 756.92 145.8 Q 756.68 142.12 755.28 139.07999999999998 Q 753.88 136.04 751.68 133.84 Q 749.4799999999999 131.64 746.5999999999999 130.4 Q 743.7199999999999 129.16 740.4399999999999 129.16 Q 737.16 129.16 734.28 130.4 Q 731.4 131.64 729.1999999999999 133.84 Q 727 136.04 725.68 139.12 Q 724.3599999999999 142.2 724.1199999999999 145.8 L 756.92 145.8 Z " fill-rule="evenodd" fill="rgb(0,0,0)" stroke-width="1" stroke="rgba(0,0,0,0)" stroke-linejoin="miter" stroke-linecap="square"/><path d=" M 25 167 C 34.976165783691 142.94506022551093 42.71190194015653 123.44307968918818 50.03604182245685 106.63222667204778" fill="none" stroke-width="6" stroke="rgb(74,134,232)" stroke-linejoin="miter" stroke-linecap="square"/><path d=" M 48 111.09976411916514 Q 75.85730710240995 46.260174954262894 80.99999999999994 44 L 143 168" fill="none" stroke-width="6" stroke="rgb(74,134,232)" stroke-linejoin="miter" stroke-linecap="square"/><g style="isolation:isolate"/></svg>