<?xml version="1.0" encoding="utf-8"?>
<!-- Generator: Adobe Illustrator 22.0.1, SVG Export Plug-In . SVG Version: 6.00 Build 0)  -->
<svg version="1.1" id="Layer_1" xmlns="http://www.w3.org/2000/svg" xmlns:xlink="http://www.w3.org/1999/xlink" x="0px" y="0px"
	 viewBox="0 0 305 125" style="enable-background:new 0 0 305 125;" xml:space="preserve">
<style type="text/css">
	.st0{fill:#FFFFFF;}
</style>
<path class="st0" d="M130.3,114.2l-4.7-10h-3.9v12.7h2.6v-10.5l4.9,10.5h3.7v-12.7h-2.5V114.2z M2,106.3h3.8v10.6h2.7v-10.6h3.8
	v-2.1H2V106.3z M26.3,109.3h-4.8v-5.1h-2.7v12.7h2.7v-5.6h4.8v5.6H29v-12.7h-2.8V109.3z M158.6,104.2l-4.6,12.7h2.6l0.9-2.7h5
	l0.9,2.7h2.7l-4.4-12.7H158.6z M158.3,112.1l1.9-5.4l1.8,5.4H158.3z M39.4,111.4h5.4v-2.1h-5.4v-3h5.8v-2.1h-8.5v12.7h8.7v-2.1h-6
	V111.4z M69.5,113.4l-2.7-9.2h-4.4v12.7h2.5V106l3.4,10.9h2.2L74,106v10.9h2.7v-12.7h-4.3L69.5,113.4z M111.1,111.8
	c0,1.3-0.1,1.8-0.4,2.2c-0.7,1.1-2,1.1-2.5,1.1c-2.6,0-2.8-1.7-2.8-3.1v-7.7h-2.7v7.6c0,1.2,0,2.2,0.6,3.1c1.2,1.9,3.5,2.2,4.8,2.2
	c2.6,0,5.6-1.2,5.6-5v-7.9h-2.6V111.8z M89.6,104c-4.6,0-6.1,3.4-6.1,6.8c0,1.2,0.2,3.3,1.6,4.7c1.2,1.2,2.8,1.7,4.5,1.7
	c1.1,0,3.1-0.2,4.5-1.8c1-1.2,1.6-3.1,1.6-5c0-1.2-0.3-3.2-1.6-4.8C92.9,104.3,91,104,89.6,104z M92,114c-0.5,0.8-1.3,1.2-2.4,1.2
	c-1.3,0-1.9-0.5-2.3-1c-0.8-1-0.9-2.3-0.9-3.5c0-1.4,0.2-2.8,0.9-3.7c0.5-0.6,1.3-1.1,2.3-1.1c1.3,0,2.4,0.7,2.9,2.2
	c0.3,0.8,0.3,1.6,0.3,2.3C92.9,112.4,92.4,113.4,92,114z M139.2,106.3h3.8v10.6h2.7v-10.6h3.8v-2.1h-10.3V106.3z M266.1,104.3h-3.9
	v12.6h2.8V112h1.8c0.7,0,1.9,0,2.9-0.6c1-0.6,1.6-1.9,1.6-3.4c0-0.6-0.1-1.6-0.8-2.4C269.4,104.4,267.9,104.3,266.1,104.3z
	 M265.9,110h-1.1v-3.6h1.4c0.8,0,2.2,0,2.2,1.7C268.4,110,266.8,110,265.9,110z M230.6,111.4h5.4v-2.1h-5.4v-3h5.8v-2.1h-8.5v12.7
	h8.7v-2.1h-6V111.4z M215.7,104.3h-3.9v12.6h2.8V112h1.8c0.7,0,1.9,0,2.9-0.6c1-0.6,1.6-1.9,1.6-3.4c0-0.6-0.1-1.6-0.8-2.4
	C219.1,104.4,217.5,104.3,215.7,104.3z M215.6,110h-1.1v-3.6h1.4c0.8,0,2.2,0,2.2,1.7C218.1,110,216.5,110,215.6,110z M249,104
	c-4.6,0-6.1,3.4-6.1,6.8c0,1.2,0.2,3.3,1.6,4.7c1.2,1.2,2.8,1.7,4.5,1.7c1.1,0,3.1-0.2,4.5-1.8c1-1.2,1.6-3.1,1.6-5
	c0-1.2-0.3-3.2-1.6-4.8C252.3,104.3,250.4,104,249,104z M251.4,114c-0.5,0.8-1.3,1.2-2.4,1.2c-1.3,0-1.9-0.5-2.3-1
	c-0.8-1-0.9-2.3-0.9-3.5c0-1.4,0.2-2.8,0.9-3.7c0.5-0.6,1.3-1.1,2.3-1.1c1.3,0,2.4,0.7,2.9,2.2c0.3,0.8,0.3,1.6,0.3,2.3
	C252.3,112.4,251.8,113.4,251.4,114z M296,114.8v-3.4h5.4v-2.1H296v-3h5.8v-2.1h-8.5v12.7h8.7v-2.1H296z M191.8,114.2l-4.7-10h-3.9
	v12.7h2.6v-10.5l4.9,10.5h3.7v-12.7h-2.5V114.2z M172.8,116.9h2.7v-12.7h-2.7V116.9z M280.9,104.3h-2.8v12.6h8.2v-2.2h-5.4V104.3z
	 M58.5,21.2c2-2,3.8-2.8,5.1-2.7c1.7,0.2,2,1,2.5,3c0.2,0.7,0.4,1.4,0.7,2.2C73.2,41.7,91.8,37.4,92,37.3c0,0,0.9-0.2,2.1-0.7
	c0.2-0.1,0.4-0.3,0.4-0.6c0-0.2-0.2-0.4-0.5-0.4c-3.5-0.2-8-1.8-14.7-12.2l-0.5-0.8c-2.6-4.1-4.7-7.3-11.6-6.8
	c-3,0.2-5.2,1.3-7.2,2.2c-1.2,0.6-2.4,1.1-3.6,1.4c-3.2,0.8-5.2,0.7-6.9,0.6c-0.4,0-0.7,0-1-0.1c-7-0.3-10.8-3.7-12.5-11
	c-0.1-0.2-0.3-0.4-0.5-0.4c-0.3,0-0.5,0.2-0.6,0.4c-0.3,0.7-1,2.6-1.2,4.5c-0.8,8.3,2.2,13.5,8.3,14.2
	C44.4,28.2,51.3,28.2,58.5,21.2z M266.6,13.1c0-1.6-0.6-3-1.7-4.1c-1.1-1.1-2.5-1.6-4-1.6c-1.6,0-3,0.6-4.1,1.7
	c-1.1,1.1-1.7,2.5-1.7,4.1c0,1.6,0.6,2.9,1.7,4c1.1,1.1,2.5,1.7,4,1.7c1.6,0,2.9-0.5,4-1.6C266,16.1,266.6,14.8,266.6,13.1z
	 M260.9,18.2c-1.4,0-2.5-0.5-3.4-1.5c-0.9-1-1.4-2.2-1.4-3.5c0-1.4,0.5-2.6,1.4-3.6c0.9-1,2.1-1.5,3.4-1.5c1.3,0,2.4,0.5,3.4,1.5
	c0.9,1,1.4,2.2,1.4,3.5c0,1.4-0.5,2.6-1.5,3.6C263.3,17.7,262.1,18.2,260.9,18.2z M215,14.2c0.5,0.8,0.8,2.1,0.8,3.9v50.5
	c0,1.4,1.7,2.8,5.1,4.2c3.4,1.4,6.9,2.1,10.4,2.1c7,0,12.7-2.4,17-7.2c4.3-4.8,6.4-10.6,6.4-17.3c0-6.3-1.7-11.4-5-15.4
	c-3.3-3.9-7.3-5.9-12-5.9c-3.8,0-7.2,1.2-10.1,3.6c-1.7,1.4-2.9,2.8-3.7,4.3V8c0-0.2,0-0.4-0.1-0.6c-0.2,0-1.8,0.5-4.7,1.5
	c-2.9,1-6.2,1.9-9.8,2.8v1.6l2.2-0.2C213.3,13.1,214.5,13.5,215,14.2z M223.7,42.7c0-2.1,1.1-3.9,3.2-5.3c2.2-1.4,4.4-2.1,6.6-2.1
	c4.5,0,7.7,2,9.7,6c2,4,3,8.4,3,13.2c0,4.7-1.1,8.8-3.2,12.1c-2.1,3.3-5.4,5-9.9,5c-1.7,0-3.6-0.4-5.8-1.1c-2.2-0.7-3.4-1.9-3.7-3.6
	V42.7z M204.5,69.2c-1.3,0-2.2-0.6-2.6-1.9c-0.3-0.7-0.4-2-0.4-3.8V44.4c0-4.2-0.6-7.4-1.8-9.6c-2.2-4-6.4-6-12.6-6
	c-5.3,0-9.4,1.2-12.1,3.7c-2.8,2.4-4.1,4.8-4.1,7c0,1.1,0.4,2.2,1.1,3.1c0.8,0.9,1.9,1.4,3.3,1.4c0.9,0,1.7-0.2,2.4-0.6
	c1.2-0.7,1.8-1.9,1.8-3.7c0-0.3-0.1-0.8-0.2-1.7c-0.2-0.9-0.2-1.6-0.2-1.9c0-1.5,0.7-2.7,2.2-3.5c1.5-0.8,3-1.2,4.6-1.2
	c3.4,0,5.6,1.1,6.7,3.2c0.6,1.3,1,3.5,1,6.8v4.1c-8.8,3.3-14.6,5.9-17.5,7.8c-4.6,3.1-6.9,6.9-6.9,11.6c0,3,1,5.4,3,7.3
	c2,1.9,4.4,2.9,7.1,2.9c2.6,0,5.4-0.9,8.3-2.6c1.7-1,3.8-2.6,6.2-4.7c0.1,1.9,0.6,3.6,1.6,5c1,1.4,2.5,2.1,4.7,2.1
	c1.8,0,3.7-0.6,5.4-1.8c1.2-0.8,2.3-1.8,3.3-3.1v-2.5c-1.2,0.9-2,1.4-2.5,1.6C205.8,69.1,205.2,69.2,204.5,69.2z M193.6,62.7
	c0,1.8-1,3.3-2.9,4.5c-1.9,1.2-3.9,1.8-6,1.8c-1.5,0-2.9-0.4-4.2-1.3c-1.9-1.4-2.9-3.5-2.9-6.4c0-3.6,2.3-6.8,6.9-9.6
	c2.4-1.5,5.4-2.8,9.1-4V62.7z M261.8,13.3c0.9-0.3,1.3-0.9,1.3-1.7c0-0.5-0.2-0.9-0.6-1.1c-0.4-0.3-0.9-0.4-1.4-0.4h-3v0.3
	c0.4,0,0.6,0.1,0.7,0.2c0.1,0.1,0.1,0.3,0.1,0.6v4.1c0,0.3,0,0.5-0.1,0.6c-0.1,0.1-0.3,0.1-0.7,0.2v0.3h2.7v-0.3
	c-0.4,0-0.6-0.1-0.7-0.2c-0.1-0.1-0.1-0.3-0.1-0.6v-1.7h0.9c0.4,0.6,0.8,1.3,1.2,1.9c0.3,0.5,0.6,0.8,0.8,0.8h1.1V16
	c-0.5-0.5-0.9-0.9-1.1-1.2L261.8,13.3z M260.7,13.2H260v-2.8h0.7c0.9,0,1.3,0.4,1.3,1.3C262,12.6,261.6,13.2,260.7,13.2z
	 M128.6,72.3c-3.7-0.3-6.1-1-7.2-1.9c-1.1-1-1.6-3.3-1.6-6.9V44.2l5.4-0.2L148.5,74h15.8v-1.8c-1.9-0.2-3.5-0.6-4.8-1.3
	c-1.2-0.7-2.5-1.8-3.7-3.3l-20.1-24.8c5.4-0.8,9.7-2.5,12.9-5.2c3.2-2.6,4.7-6.4,4.7-11.2c0-7.3-3.6-12.2-10.7-14.9
	c-3.8-1.4-8.5-2.1-14.1-2.1h-27.1v1.8c3.5,0.3,5.8,1,6.9,2c1,1.1,1.6,3.3,1.6,6.8v42.4c0,4.1-0.5,6.7-1.4,7.8
	c-0.9,1.1-3.3,1.8-7,2.2V74h27.2V72.3z M119.8,16.5c0-1.5,0.3-2.4,0.9-2.8c0.6-0.4,2.3-0.6,5.1-0.6c4.1,0,7.4,0.6,9.9,1.7
	c4.6,2.1,7,5.9,7,11.6c0,5.9-2.6,9.9-7.8,12c-3,1.2-8.1,1.9-15.1,2.2V16.5z M100.5,60.5c-3.5-0.2-8-1.8-14.7-12.2l-0.5-0.8
	c-2.6-4.1-4.7-7.3-11.6-6.8c-3,0.2-5.2,1.3-7.2,2.2c-1.2,0.6-2.4,1.1-3.6,1.4c-3.2,0.8-5.2,0.7-6.9,0.6c-0.4,0-0.7,0-1-0.1
	c-7-0.3-10.8-3.7-12.5-11c-0.1-0.2-0.3-0.4-0.5-0.4c-0.3,0-0.5,0.2-0.6,0.4c-0.3,0.7-1,2.6-1.2,4.5c-0.8,8.3,2.2,13.4,8.3,14.2
	c2.6,0.3,9.5,0.4,16.7-6.6c2-2,3.8-2.8,5.1-2.7c1.7,0.2,2,1,2.5,3c0.2,0.7,0.4,1.4,0.7,2.2c6.4,17.9,25.1,13.6,25.3,13.5
	c0,0,0.9-0.2,2.1-0.7c0.2-0.1,0.4-0.3,0.4-0.6C100.9,60.7,100.7,60.5,100.5,60.5z"/>
</svg>
